<svg xmlns="http://www.w3.org/2000/svg" version="1.1" xmlns:xlink="http://www.w3.org/1999/xlink" xmlns:svgjs="http://svgjs.dev/svgjs" width="2000" height="2250" viewBox="0 0 2000 2250"><g transform="matrix(1,0,0,1,3.410605131648481e-13,0)"><svg viewBox="0 0 320 360" data-background-color="#ffffff" preserveAspectRatio="xMidYMid meet" height="2250" width="2000" xmlns="http://www.w3.org/2000/svg" xmlns:xlink="http://www.w3.org/1999/xlink"><defs></defs><g id="tight-bounds" transform="matrix(1,0,0,1,0,0)"><svg viewBox="0 0 320 360" height="360" width="320"><g><svg></svg></g><g><svg viewBox="0 0 320 360" height="360" width="320"><g><path d="M20.961 227.22l3.726 4.658-1.863-6.056c-0.466-2.795-3.726 0.466-1.863 1.398M25.153 224.425c1.397 2.329 2.795 4.658 2.795 6.987 0 3.261 2.795 4.658 5.123 5.589-3.261-3.726-5.124-13.974-7.918-12.576M204.017 26.929c7.918 0 15.371-0.932 23.756 0.931 20.495 5.124 37.729 15.371 49.374 29.811l32.606 52.169c1.397 13.042 4.192 27.482 3.726 43.319 3.261 0 2.795-4.658 6.521-5.59-3.726 9.316-5.59 20.961-6.521 34.469-2.329-7.453 0-18.632 0.466-24.687-3.261 5.124-5.124 1.397-5.124-0.932 0.466-3.726-1.397-3.261-2.795-4.658-5.124-4.658-8.384-9.782-12.11-17.7 2.329-6.055 2.795-14.905-4.658-19.563-2.329-1.397-5.124-3.726-6.521-7.453-1.863-5.124-5.124-11.179-4.193-19.097 0.466-2.329-6.987 5.124-11.179 1.863-18.166-12.576-36.332-27.016-58.224-39.127-11.645 0-20.029-4.192-24.221-9.316-3.726-4.658-0.932-10.713 4.658-11.179 3.261 0 6.987-0.932 9.782 0.932 0.466-1.863 2.329-4.192 4.657-4.192M157.904 16.215l0.932 0.466c4.658 0.932 6.987 7.453 12.11 5.124 0 3.261 0.466 6.521-0.466 8.85-1.397 3.726-5.59 3.726-8.85 3.726-31.208-1.863-49.374 11.179-68.471 22.358-5.124 3.261-10.713 5.59-14.906 9.782-20.029 18.632-41.921 35.866-47.045 70.335l-4.192 38.195c-0.466 4.192-5.124 8.384-4.192 13.508l3.26 22.824c-3.261-3.261-5.124 0.932-4.192 2.795 0.466 1.397 2.329 6.055 5.124 1.863 3.726 6.987 7.453 20.495 12.576 26.55 15.837 18.632 36.332 35.4 53.101 52.169 4.192-0.932 7.453-0.932 8.384-3.727 1.397 2.795-1.397 5.59-3.726 6.056 7.453 4.658 15.837 8.85 27.016 9.781 14.44 0.932 27.948 3.261 40.524 6.522 6.521-1.863 13.042-2.795 20.029-3.261 2.329 0 3.726-3.726 6.521-4.658l0.466-4.658c2.795 4.192 2.329-1.397 0.466-4.192 3.261 2.795 4.192 5.124 5.589 6.987 0-1.397 3.726-6.521 3.727-0.466l0.931-6.055c1.397-0.932 1.863 5.124 3.261 0.931 1.397-4.192 4.192-0.932 6.987-2.329-0.932 1.863-0.466 5.59 2.794 3.261l3.727-3.261c2.329 5.59 6.055 3.261 7.918 2.329 20.495-13.042 40.99-28.413 60.553-43.784l-0.466 6.055 2.329-7.453c2.329 2.329 4.192 0.466 5.124-0.931 2.795-4.658 6.521-9.316 12.577-13.508-7.453 20.029-16.303 35.866-27.482 48.908l-4.658 5.59c0 3.261-0.932 7.453-4.658 7.918-1.863 0.466-5.59-0.932-8.384 1.863-1.397 1.863 3.261 5.59-0.466 2.795-3.261-2.329-6.521 0-10.248 0.932-2.795 0.932 1.863 3.726 2.795 5.589 0.932 1.863 1.863 3.726 1.398 6.056l-5.124-5.59c-6.055 3.261-9.782 9.316-14.906 13.974-2.329 1.863-1.397 5.124-1.397 7.918-3.261 0-6.987-0.932-8.85 0.932-1.397 1.863-0.932 4.658-0.932 7.453-4.658-0.466-5.124-7.453-9.315-6.056-4.192 0.932-8.85 1.397-12.577 3.727 2.795 5.59-4.658 2.329-3.726 3.26-6.987-4.192-13.042-7.453-20.495-4.658-15.837-5.124-35.4-2.795-49.84-0.931 0-2.329 0.466-4.658-0.466-5.124-0.932 2.329-3.726 1.397-3.26 1.397-8.85-6.055-17.7-9.782-27.016-14.905-8.384 0.932-16.303-3.261-18.632-5.59-6.521-6.055-13.974-2.795-20.029-4.192-13.042-3.261-17.7-16.769-19.098-26.084-0.932-4.658-4.658-6.521-6.055-6.056-6.055-19.563-15.371-37.263-22.824-55.429-1.863-4.658-1.397-9.316-1.397-14.44 2.329 0.932 4.658 0.466 4.192-2.794-2.329-15.371-7.918-27.016-13.974-38.195 3.261-15.837 3.726-34.469 11.179-48.443 6.521-12.576 18.632-19.098 27.016-29.811 2.795-3.726 2.795-8.85 5.59-12.11 9.316-9.316 18.632-19.098 28.879-27.482 4.658-3.726 10.247 0 17.234-1.397 2.329-8.384 11.645-15.837 20.495-13.508 3.726 0.932 11.179-8.85 13.508-9.782 3.726-1.397 1.863 3.726 1.863 6.987 8.85-6.987 20.961-10.713 32.14-14.906" fill="#398378" data-fill-palette-color="tertiary"></path></g><g transform="matrix(1,0,0,1,69.40135072121305,90)"><svg viewBox="0 0 181.1972985575739 180" height="180" width="181.1972985575739"><g><svg viewBox="0 0 181.1972985575739 180" height="180" width="181.1972985575739"><g><svg viewBox="0 0 192 190.73132036247688" height="180" width="181.1972985575739"><g transform="matrix(1,0,0,1,0,71.43549709702985)"><svg viewBox="0 0 192 119.29582326544701" height="119.29582326544701" width="192"><g><svg viewBox="0 0 192 119.29582326544701" height="119.29582326544701" width="192"><g><svg viewBox="0 0 192 119.29582326544701" height="119.29582326544701" width="192"><g transform="matrix(1,0,0,1,0,0)"><svg width="192" viewBox="1.8450000286102295 -26.5 43.45499801635742 27" height="119.29582326544701" data-palette-color="#398378"><path d="M2.25-4.1L2.25-4.1Q1.8-4.75 1.85-5.48 1.9-6.2 2.7-6.75L2.7-6.75Q3.2-7.1 3.88-7.05 4.55-7 5.1-6.4L5.1-6.4Q6.5-4.75 8.3-3.78 10.1-2.8 12.7-2.8L12.7-2.8Q13.9-2.85 15.1-3.2 16.3-3.55 17.13-4.42 17.95-5.3 17.95-6.75L17.95-6.75Q17.95-8.15 17.1-8.97 16.25-9.8 14.9-10.33 13.55-10.85 11.95-11.25L11.95-11.25Q10.3-11.7 8.7-12.28 7.1-12.85 5.83-13.73 4.55-14.6 3.78-15.93 3-17.25 3-19.15L3-19.15Q3-21.4 4.23-23.05 5.45-24.7 7.53-25.6 9.6-26.5 12.05-26.5L12.05-26.5Q13.45-26.5 14.98-26.18 16.5-25.85 17.95-25.08 19.4-24.3 20.5-22.95L20.5-22.95Q20.95-22.45 21-21.7 21.05-20.95 20.35-20.35L20.35-20.35Q19.8-19.95 19.13-20 18.45-20.05 18-20.5L18-20.5Q16.95-21.75 15.38-22.43 13.8-23.1 11.9-23.1L11.9-23.1Q10.7-23.1 9.55-22.75 8.4-22.4 7.63-21.58 6.85-20.75 6.85-19.3L6.85-19.3Q6.9-17.95 7.75-17.1 8.6-16.25 10.05-15.73 11.5-15.2 13.25-14.7L13.25-14.7Q14.85-14.3 16.32-13.78 17.8-13.25 19-12.4 20.2-11.55 20.9-10.23 21.6-8.9 21.6-6.9L21.6-6.9Q21.6-4.6 20.3-2.93 19-1.25 16.88-0.38 14.75 0.5 12.3 0.5L12.3 0.5Q9.55 0.5 6.88-0.55 4.2-1.6 2.25-4.1ZM25.95-4.1L25.95-4.1Q25.5-4.75 25.55-5.48 25.6-6.2 26.4-6.75L26.4-6.75Q26.9-7.1 27.57-7.05 28.25-7 28.8-6.4L28.8-6.4Q30.2-4.75 32-3.78 33.8-2.8 36.4-2.8L36.4-2.8Q37.6-2.85 38.8-3.2 40-3.55 40.82-4.42 41.65-5.3 41.65-6.75L41.65-6.75Q41.65-8.15 40.8-8.97 39.95-9.8 38.6-10.33 37.25-10.85 35.65-11.25L35.65-11.25Q34-11.7 32.4-12.28 30.8-12.85 29.52-13.73 28.25-14.6 27.47-15.93 26.7-17.25 26.7-19.15L26.7-19.15Q26.7-21.4 27.92-23.05 29.15-24.7 31.22-25.6 33.3-26.5 35.75-26.5L35.75-26.5Q37.15-26.5 38.67-26.18 40.2-25.85 41.65-25.08 43.1-24.3 44.2-22.95L44.2-22.95Q44.65-22.45 44.7-21.7 44.75-20.95 44.05-20.35L44.05-20.35Q43.5-19.95 42.82-20 42.15-20.05 41.7-20.5L41.7-20.5Q40.65-21.75 39.07-22.43 37.5-23.1 35.6-23.1L35.6-23.1Q34.4-23.1 33.25-22.75 32.1-22.4 31.32-21.58 30.55-20.75 30.55-19.3L30.55-19.3Q30.6-17.95 31.45-17.1 32.3-16.25 33.75-15.73 35.2-15.2 36.95-14.7L36.95-14.7Q38.55-14.3 40.02-13.78 41.5-13.25 42.7-12.4 43.9-11.55 44.6-10.23 45.3-8.9 45.3-6.9L45.3-6.9Q45.3-4.6 44-2.93 42.7-1.25 40.57-0.38 38.45 0.5 36 0.5L36 0.5Q33.25 0.5 30.57-0.55 27.9-1.6 25.95-4.1Z" opacity="1" transform="matrix(1,0,0,1,0,0)" fill="#398378" class="undefined-text-0" data-fill-palette-color="primary" id="text-0"></path></svg></g></svg></g></svg></g></svg></g><g transform="matrix(1,0,0,1,36.672,0)"><svg viewBox="0 0 118.656 54.02737338284277" height="54.02737338284277" width="118.656"><g><svg xmlns="http://www.w3.org/2000/svg" xmlns:xlink="http://www.w3.org/1999/xlink" version="1.1" x="0" y="0" viewBox="15.716943740844727 68.41094970703125 249.96221923828125 113.81474304199219" enable-background="new 0 0 283.46 283.46" xml:space="preserve" height="54.02737338284277" width="118.656" class="icon-icon-0" data-fill-palette-color="accent" id="icon-0"><path fill="#398378" d="M262.138 145.035c-0.312-1.649-1.131-4.44-3.256-7.057-3.473-4.273-11.354-10.798-39.584-18.076-4.014-1.034-8.351-2.381-12.861-3.934 0.078-1.168-0.491-2.334-1.572-2.964-1.435-0.835-3.251-0.423-4.195 0.904-2.928-1.081-5.902-2.228-8.885-3.414 0.074-1.144-0.473-2.29-1.52-2.929-1.359-0.827-3.088-0.516-4.083 0.66-2.778-1.143-5.544-2.307-8.267-3.471-0.021-1.058-0.565-2.082-1.537-2.668-1.235-0.745-2.772-0.552-3.789 0.371-2.512-1.093-4.967-2.172-7.344-3.222 0.119-1.161-0.404-2.344-1.455-3.013-1.332-0.848-3.057-0.579-4.076 0.561-0.116-0.051-0.233-0.104-0.348-0.154-2.447-1.086-4.771-2.117-6.955-3.079 0.168-1.198-0.354-2.44-1.442-3.133-1.382-0.879-3.183-0.56-4.187 0.686-1.438-0.615-2.777-1.177-4.015-1.682 0.795-1.153 0.759-2.737-0.188-3.859-1.136-1.344-3.146-1.512-4.489-0.377l-2.105 1.779c-0.048-0.025-0.095-0.054-0.146-0.077L97.346 68.716c-1.498-0.707-3.287-0.147-4.117 1.286C93.15 70.138 85.3 83.717 80.474 92.765c-2.428 4.553-1.88 9.054-1.091 11.859-0.955 0.096-1.926 0.15-2.917 0.15-5.732 0.001-11.563-1.759-17.333-5.229-7.39-4.444-11.992-9.612-15.353-13.387-3.195-3.588-5.505-6.181-8.687-6.181-4.165 0-6.681 4.257-9.865 12.112-7.147 17.631-8.985 36.119-9.454 43.805-0.071 3.194-0.071 4.218-0.026 6.339 0.254 3.104 0.992 8.567 3.149 14.396 4.418 11.94 12.649 19.623 23.803 22.219l2.379 0.555c9.815 2.293 11.583 2.706 19.092 2.706 14.104 0 150.532 0.103 155.517 0.106 0.452 0.035 4.048-0.027 4.049-0.027 5.368 0 15.284-0.555 22.841-5.309 12.422-7.818 18.846-15.483 19.094-22.783C265.813 149.933 263.85 146.777 262.138 145.035zM41.664 109.7c9.936 5.139 22.862 15.632 30.678 7.815 2.624-2.623 4.01-4.872 4.729-6.382 9.949-0.173 18.196-4.524 24.364-8.756 1.251 1.955 3.357 4.24 6.858 5.941l-20.1 11.878c-3.246 1.697-8.4 7.533-5.469 17.991 0.241 1.209 1.918 9.163 6.182 19.634l-19.46-0.001c-3.988-14.957-13.385-21.338-23.291-28.054-1.138-0.771-2.293-1.555-3.458-2.363-10.637-7.377-11.882-17.37-11.935-17.84-0.059-0.568-0.267-1.086-0.579-1.521C33.267 107.298 37.172 107.377 41.664 109.7zM129.978 92.043l-5.76 4.868c-1.344 1.135-1.512 3.145-0.377 4.488 0.63 0.746 1.529 1.13 2.435 1.13 0.726 0 1.456-0.248 2.054-0.753l9.02-7.622c0.781 0.283 1.577 0.587 2.391 0.914 1.091 0.439 2.281 0.934 3.557 1.476l-3.882 6.103c-0.945 1.484-0.507 3.453 0.977 4.397 0.53 0.337 1.122 0.498 1.707 0.498 1.053 0 2.084-0.521 2.688-1.476l4.428-6.96c2.188 0.96 4.529 1.999 6.998 3.095l-3.02 4.744c-0.945 1.484-0.507 3.453 0.977 4.397 0.531 0.337 1.123 0.498 1.707 0.498 1.055 0 2.084-0.521 2.69-1.476l3.534-5.553c2.279 1.007 4.636 2.044 7.047 3.096l-2.385 3.953c-0.908 1.506-0.424 3.464 1.082 4.373 0.516 0.31 1.082 0.457 1.643 0.457 1.078 0 2.133-0.549 2.73-1.54l2.83-4.692c2.547 1.09 5.133 2.182 7.736 3.258l-1.783 2.923c-0.916 1.502-0.441 3.462 1.062 4.378 0.517 0.315 1.089 0.466 1.653 0.466 1.074 0 2.123-0.543 2.723-1.527l2.322-3.808c2.893 1.155 5.781 2.277 8.639 3.342l-1.156 1.988c-0.886 1.52-0.371 3.469 1.148 4.354 0.505 0.294 1.055 0.434 1.602 0.434 1.096 0 2.162-0.566 2.756-1.583l1.742-2.995c2.705 0.942 5.355 1.814 7.926 2.601-0.476 0.81-1.162 1.891-2.164 3.313-2.264 3.218-7.446 2.388-8.146 2.258-3.675-1.108-74.695-22.525-87.611-26.342-4.163-1.229-6.078-3.445-6.926-4.917 0.282-0.218 0.56-0.433 0.827-0.64 1.508-1.168 2.811-2.178 3.731-2.739 3.1-1.895 7.034-3.831 12.709-3.831C125.761 91.392 127.801 91.608 129.978 92.043zM221.494 169.667c-11.15 0.951-23.312 0.855-23.477 0.854-11.021-0.082-26.176-1.76-40.548-3.787l32.633-33.538c5.601 1.688 9.147 2.758 9.308 2.806 0.073 0.022 0.147 0.042 0.221 0.059 0.154 0.034 1.631 0.354 3.672 0.354 3.322 0 8.138-0.847 11.162-5.146 0.468-0.664 0.882-1.274 1.252-1.84 9.541 1.869 22.322 6.358 23.09 11.248 0.334 2.137-0.832 3.521-4.248 6.93-3.742 3.732-8.866 8.844-11.863 18.393C222.322 167.185 221.917 168.414 221.494 169.667zM116.289 110.995c3.622 1.082 8.52 2.55 14.135 4.235l-36.619 37.635c-3.521-9.234-4.834-15.932-4.85-16.016-0.019-0.094-0.04-0.187-0.066-0.277-2.23-7.805 1.693-10.402 2.293-10.747 0.082-0.038 0.08-0.041 0.172-0.096L116.289 110.995zM142.614 118.895c4.003 1.204 8.142 2.449 12.279 3.694l-36.796 37.577c-0.571-0.111-1.084-0.215-1.523-0.305-4.076-0.834-8.433-1.33-11.998-1.623l38.164-39.222L142.614 118.895zM167.287 126.321c3.641 1.096 7.156 2.155 10.444 3.146l-34.215 35.164c-4.238-0.676-8.229-1.346-11.816-1.969L167.287 126.321zM96.915 166.314c0.651 0.016 10.099 0.262 17.956 1.868 3.971 0.812 12.58 2.437 23.176 4.183H51.825c-4.019 0-5.989-0.252-7.029-0.898-0.988-0.614-1.796-2.021-3.387-4.889-0.047-0.084-0.097-0.177-0.146-0.264H96.915zM253.939 141.996c1.814 2.232 2.025 4.812 2.025 4.812 0.027 0.461 0.154 0.904 0.365 1.305l-3.252 8.042c-1.683 3.923-5.652 7.326-9.982 10.022-2.84 0.562-6.756 1.318-11.881 2.266-0.879 0.162-1.803 0.312-2.76 0.449 0.104-0.328 0.215-0.663 0.315-0.986 2.528-8.054 6.829-12.343 10.284-15.789 3.554-3.546 6.91-6.895 6.043-12.428-0.303-1.923-1.21-3.733-2.709-5.426C247.945 136.793 251.81 139.375 253.939 141.996zM86.095 95.762c3.521-6.602 8.688-15.672 11.187-20.031l20.857 9.847c-4.373 0.87-7.733 2.621-10.332 4.21-1.221 0.745-2.652 1.855-4.31 3.14-4.401 3.409-10.429 8.077-17.864 10.404C85.105 101.728 84.517 98.722 86.095 95.762zM25.25 114.002c1.361 4.584 4.883 12.441 13.817 18.638 1.185 0.821 2.358 1.616 3.515 2.4 9.17 6.218 16.657 11.295 20.243 22.781h-26.86c-4.49-6.385-10.587-13.931-13.975-18.04-0.002-0.082-0.003-0.139-0.003-0.167C22.001 138.944 22.281 127.777 25.25 114.002z" data-fill-palette-color="accent"></path></svg></g></svg></g><g></g></svg></g></svg></g></svg></g></svg></g></svg><rect width="320" height="360" fill="none" stroke="none" visibility="hidden"></rect></g></svg></g></svg>