<svg xmlns="http://www.w3.org/2000/svg" version="1.1" xmlns:xlink="http://www.w3.org/1999/xlink" xmlns:svgjs="http://svgjs.dev/svgjs" width="2000" height="1247" viewBox="0 0 2000 1247"><g transform="matrix(1,0,0,1,-1.2121212121212466,0.504858299595071)"><svg viewBox="0 0 396 247" data-background-color="#046380" preserveAspectRatio="xMidYMid meet" height="1247" width="2000" xmlns="http://www.w3.org/2000/svg" xmlns:xlink="http://www.w3.org/1999/xlink"><defs></defs><g id="tight-bounds" transform="matrix(1,0,0,1,0.2400000000000091,-0.09999999999999432)"><svg viewBox="0 0 395.52 247.2" height="247.2" width="395.52"><g><svg></svg></g><g><svg viewBox="0 0 395.52 247.2" height="247.2" width="395.52"><g transform="matrix(1,0,0,1,75.54432000000001,96.85232246989789)"><svg viewBox="0 0 244.43135999999996 53.495355060204226" height="53.495355060204226" width="244.43135999999996"><g><svg viewBox="0 0 244.43135999999996 53.495355060204226" height="53.495355060204226" width="244.43135999999996"><g><svg viewBox="0 0 395.24876416027814 86.50270151858176" height="53.495355060204226" width="244.43135999999996"><g transform="matrix(1,0,0,1,150.8174041602782,11.955149052133951)"><svg viewBox="0 0 244.43135999999998 62.59240341431386" height="62.59240341431386" width="244.43135999999998"><g><svg viewBox="0 0 244.43135999999998 62.59240341431386" height="62.59240341431386" width="244.43135999999998"><g><svg viewBox="0 0 244.43135999999998 62.59240341431386" height="62.59240341431386" width="244.43135999999998"><g transform="matrix(1,0,0,1,0,0)"><svg width="244.43135999999998" viewBox="4 -38.29999923706055 152.2899932861328 39" height="62.59240341431386" data-palette-color="#ffffff"><path d="M11.8-6.7L27.15-6.7 27.15 0 4 0 4-34.65 11.8-34.65 11.8-6.7ZM30.4-12.95L30.4-12.95Q30.4-16.45 31.47-19.07 32.55-21.7 34.3-23.45 36.05-25.2 38.32-26.1 40.6-27 43-27L43-27Q48.6-27 51.85-23.58 55.1-20.15 55.1-13.5L55.1-13.5Q55.1-12.85 55.05-12.08 55-11.3 54.95-10.7L54.95-10.7 38.05-10.7Q38.3-8.4 40.2-7.05 42.1-5.7 45.3-5.7L45.3-5.7Q47.35-5.7 49.32-6.08 51.3-6.45 52.55-7L52.55-7 53.55-0.95Q52.95-0.65 51.95-0.35 50.95-0.05 49.72 0.18 48.5 0.4 47.1 0.55 45.7 0.7 44.3 0.7L44.3 0.7Q40.75 0.7 38.12-0.35 35.5-1.4 33.77-3.23 32.05-5.05 31.22-7.55 30.4-10.05 30.4-12.95ZM38.05-15.8L47.9-15.8Q47.85-16.75 47.57-17.65 47.3-18.55 46.72-19.25 46.15-19.95 45.27-20.4 44.4-20.85 43.1-20.85L43.1-20.85Q41.85-20.85 40.95-20.43 40.05-20 39.45-19.3 38.85-18.6 38.52-17.68 38.2-16.75 38.05-15.8L38.05-15.8ZM59.6-12.95L59.6-12.95Q59.6-16.45 60.67-19.07 61.75-21.7 63.5-23.45 65.25-25.2 67.52-26.1 69.8-27 72.2-27L72.2-27Q77.8-27 81.05-23.58 84.3-20.15 84.3-13.5L84.3-13.5Q84.3-12.85 84.25-12.08 84.2-11.3 84.15-10.7L84.15-10.7 67.25-10.7Q67.5-8.4 69.4-7.05 71.3-5.7 74.5-5.7L74.5-5.7Q76.55-5.7 78.52-6.08 80.5-6.45 81.75-7L81.75-7 82.75-0.95Q82.15-0.65 81.15-0.35 80.15-0.05 78.92 0.18 77.7 0.4 76.3 0.55 74.9 0.7 73.5 0.7L73.5 0.7Q69.95 0.7 67.32-0.35 64.7-1.4 62.97-3.23 61.25-5.05 60.42-7.55 59.6-10.05 59.6-12.95ZM67.25-15.8L77.09-15.8Q77.05-16.75 76.77-17.65 76.5-18.55 75.92-19.25 75.34-19.95 74.47-20.4 73.59-20.85 72.3-20.85L72.3-20.85Q71.05-20.85 70.15-20.43 69.25-20 68.65-19.3 68.05-18.6 67.72-17.68 67.4-16.75 67.25-15.8L67.25-15.8ZM99.99-5.95L99.99-5.95Q101.64-5.95 102.72-6.23 103.79-6.5 104.44-6.98 105.09-7.45 105.34-8.1 105.59-8.75 105.59-9.55L105.59-9.55Q105.59-11.25 103.99-12.38 102.39-13.5 98.49-14.8L98.49-14.8Q96.79-15.4 95.09-16.18 93.39-16.95 92.04-18.13 90.69-19.3 89.84-20.98 88.99-22.65 88.99-25.05L88.99-25.05Q88.99-27.45 89.89-29.38 90.79-31.3 92.44-32.65 94.09-34 96.44-34.73 98.79-35.45 101.74-35.45L101.74-35.45Q105.24-35.45 107.79-34.7 110.34-33.95 111.99-33.05L111.99-33.05 109.74-26.9Q108.29-27.65 106.52-28.23 104.74-28.8 102.24-28.8L102.24-28.8Q99.44-28.8 98.22-28.03 96.99-27.25 96.99-25.65L96.99-25.65Q96.99-24.7 97.44-24.05 97.89-23.4 98.72-22.88 99.54-22.35 100.62-21.93 101.69-21.5 102.99-21.05L102.99-21.05Q105.69-20.05 107.69-19.07 109.69-18.1 111.02-16.8 112.34-15.5 112.99-13.75 113.64-12 113.64-9.5L113.64-9.5Q113.64-4.65 110.24-1.98 106.84 0.7 99.99 0.7L99.99 0.7Q97.69 0.7 95.84 0.43 93.99 0.15 92.57-0.25 91.14-0.65 90.12-1.1 89.09-1.55 88.39-1.95L88.39-1.95 90.59-8.15Q92.14-7.3 94.42-6.63 96.69-5.95 99.99-5.95ZM126.59-26.3L126.59 0 119.14 0 119.14-26.3 126.59-26.3ZM127.29-33.9L127.29-33.9Q127.29-31.85 125.97-30.68 124.64-29.5 122.84-29.5L122.84-29.5Q121.04-29.5 119.72-30.68 118.39-31.85 118.39-33.9L118.39-33.9Q118.39-35.95 119.72-37.13 121.04-38.3 122.84-38.3L122.84-38.3Q124.64-38.3 125.97-37.13 127.29-35.95 127.29-33.9ZM133.59 0L133.59-25.4Q135.49-25.95 138.49-26.43 141.49-26.9 144.79-26.9L144.79-26.9Q148.14-26.9 150.36-26.03 152.59-25.15 153.89-23.55 155.19-21.95 155.74-19.75 156.29-17.55 156.29-14.85L156.29-14.85 156.29 0 148.84 0 148.84-13.95Q148.84-17.55 147.89-19.05 146.94-20.55 144.34-20.55L144.34-20.55Q143.54-20.55 142.64-20.48 141.74-20.4 141.04-20.3L141.04-20.3 141.04 0 133.59 0Z" opacity="1" transform="matrix(1,0,0,1,0,0)" fill="#000000" class="undefined-text-0" data-fill-palette-color="primary" id="text-0"></path></svg></g></svg></g></svg></g></svg></g><g><svg viewBox="0 0 136.04083993184062 86.50270151858176" height="86.50270151858176" width="136.04083993184062"><g><svg xmlns="http://www.w3.org/2000/svg" xmlns:xlink="http://www.w3.org/1999/xlink" version="1.1" x="0" y="0" viewBox="5.0000152587890625 21.947507858276367 90.0000228881836 57.227264404296875" style="enable-background:new 0 0 100 100;" xml:space="preserve" height="86.50270151858176" width="136.04083993184062" class="icon-icon-0" data-fill-palette-color="accent" id="icon-0"><g fill="#ffffff" data-fill-palette-color="accent"><circle cx="84.2317505" cy="29.0925903" r="7.1" fill="#000000" data-fill-palette-color="accent"></circle><path d="M88.947 40.962c-0.003-0.006-0.008-0.009-0.011-0.016-0.285-0.572-0.74-1.052-1.313-1.356l-9.034-3.703c-0.318-0.092-0.647-0.127-0.974-0.115-0.021 0-0.041-0.005-0.061-0.004l-17.247 0.691c-1.469 0.068-2.607 1.497-2.53 3.177 0.077 1.68 1.342 2.999 2.81 2.931l11.079-0.444-5.593 7.941 11.799 7.366 5.906-9.706 1.058-0.555 2.424 4.828-3.83 0.303c-1.468 0.068-2.607 1.497-2.53 3.176 0.077 1.68 1.342 2.999 2.81 2.932l8.757-0.692c1.468-0.068 2.607-1.497 2.529-3.177-0.002-0.042-0.013-0.08-0.016-0.121C95.016 54.072 88.947 40.962 88.947 40.962z" fill="#000000" data-fill-palette-color="accent"></path><path d="M85.956 70.681c-0.489-0.69-1.199-1.151-1.975-1.235l-10.238-5.229 0.846-1.391-12.158-7.591-2.409 3.42-52.392 1.875c-1.513 0.059-2.695 1.539-2.627 3.291s1.361 3.135 2.874 3.076l53.421-1.912c0.068 0.043 0.127 0.095 0.2 0.131l11.473 5.861-12.793 1.875c-1.495 0.237-2.495 1.846-2.221 3.577 0.274 1.731 1.722 2.953 3.217 2.716l21.725-3.185c0.718 0.16 1.488-0.014 2.143-0.45 0.976-0.491 1.599-1.619 1.558-2.886C86.613 71.889 86.39 71.198 85.956 70.681z" fill="#000000" data-fill-palette-color="accent"></path><polygon points="75.1591797,61.8897705 76.1638184,60.2385864 64.177002,52.7558594 64.1018066,52.8626099 63.9381104,52.8817139    63.0627441,54.3380737  " fill="#000000" data-fill-palette-color="accent"></polygon></g></svg></g></svg></g></svg></g></svg></g></svg></g><path d="M195.291 90.852L195.291 28.29 4.67 28.29 4.67 218.91 195.291 218.91 195.291 156.348 191.8 156.348 191.8 215.42 8.161 215.42 8.161 31.78 191.8 31.78 191.8 90.852Z" fill="#000000" stroke="transparent" data-fill-palette-color="primary"></path></svg></g></svg><rect width="395.52" height="247.2" fill="none" stroke="none" visibility="hidden"></rect></g></svg></g></svg>